<svg xmlns="http://www.w3.org/2000/svg" fill="none" viewBox="0 0 265 47" height="47" width="265">
<path fill="url(#paint0_linear_207_3)" d="M162.332 46.6566H125.451V8.12972L133.311 0.388053V38.9121H158.152L162.33 46.6538L162.332 46.6566ZM210.125 0.388053H164.94L160.762 8.12972H181.514V46.6538H189.373V8.12972H205.947L210.125 0.388053ZM229.944 2.75271C218.313 8.84442 213.897 23.0742 220.081 34.5318C225.639 44.8252 237.857 49.3758 248.721 45.78L244.954 38.8033C238.013 40.4783 230.525 37.3906 227.019 30.8969C222.879 23.225 225.846 13.6659 233.634 9.58704C241.423 5.50822 251.127 8.43124 255.267 16.1031C258.771 22.5941 257.183 30.439 251.892 35.1683L255.659 42.1451C264.759 35.2884 267.763 22.7616 262.206 12.4682C256.021 1.01062 241.576 -3.339 229.944 2.75271ZM70.4148 46.6566L86.5894 16.6922L98.5864 38.9149H83.1969L79.0193 46.6566H111.669L86.5894 0.201002L61.5127 46.6566H70.4148ZM8.89927 46.6566L25.0738 16.6922L37.0709 38.9149H21.6814L17.5038 46.6566H50.1534L25.0767 0.201002L0 46.6566H8.90211H8.89927Z"></path>
<defs>
<linearGradient gradientUnits="userSpaceOnUse" y2="23.5014" x2="265" y1="23.5014" x1="0" id="paint0_linear_207_3">
<stop stop-color="#84DCF7" offset="0.1"></stop>
<stop stop-color="white" offset="1"></stop>
</linearGradient>
</defs>
</svg>
